<?xml version="1.0" encoding="UTF-8"?>
<!DOCTYPE svg PUBLIC "-//W3C//DTD SVG 1.1//EN" "http://www.w3.org/Graphics/SVG/1.1/DTD/svg11.dtd">
<!-- Creator: CorelDRAW X6 -->
<svg xmlns="http://www.w3.org/2000/svg" xml:space="preserve" width="210mm" height="297mm" version="1.1" style="shape-rendering:geometricPrecision; text-rendering:geometricPrecision; image-rendering:optimizeQuality; fill-rule:evenodd; clip-rule:evenodd"
viewBox="0 0 21000 29700"
 xmlns:xlink="http://www.w3.org/1999/xlink"
 enable-background="new 0 0 100 100">
 <defs>
  <style type="text/css">
   <![CDATA[
    .fil0 {fill:black}
   ]]>
  </style>
 </defs>
 <g id="Layer_x0020_1">
  <metadata id="CorelCorpID_0Corel-Layer"/>
  <g id="_130222544">
   <path class="fil0" d="M13104 5469c-252,-905 -1043,-1515 -1930,-1575 -195,-13 -364,134 -377,329 -14,195 134,364 329,377l-1 0c594,41 1127,450 1296,1057 36,129 53,259 53,387 0,471 -235,917 -617,1185 -161,112 -200,333 -87,494 69,98 179,151 291,151 70,0 141,-21 203,-64 572,-401 919,-1060 919,-1765 0,-190 -25,-384 -78,-576z"/>
   <path class="fil0" d="M14261 5148c-293,-1058 -1063,-1858 -2013,-2228 -182,-71 -388,19 -458,201 -71,182 18,388 201,459l0 -1c750,294 1356,923 1588,1758 66,237 97,475 97,710 0,590 -200,1158 -551,1615 -119,155 -91,377 65,496 64,49 140,73 215,73 106,0 212,-48 281,-139 444,-578 697,-1296 697,-2047 0,-297 -39,-599 -122,-899z"/>
   <path class="fil0" d="M15360 4843c-320,-1156 -1067,-2084 -2022,-2655 -168,-100 -385,-46 -485,122 -101,168 -46,385 122,486l-1 0c805,482 1432,1260 1703,2236 94,339 138,679 138,1014 0,629 -158,1239 -446,1781 -92,173 -26,387 147,479 53,28 110,42 166,42 127,0 249,-68 313,-188 340,-641 528,-1365 529,-2113 0,-398 -53,-802 -164,-1204z"/>
   <path class="fil0" d="M10176 8580c437,-468 604,-1197 618,-2055 -1,-570 -93,-1089 -268,-1505 -88,-208 -197,-394 -350,-550 -150,-154 -374,-286 -641,-286 -246,0 -455,113 -603,250l-1364 0c-216,0 -396,164 -417,379l-1574 16524c-23,230 146,434 376,457 14,1 27,2 40,2 214,0 396,-163 417,-379l3 -27 1941 -1038 1941 1039 3 28c22,230 227,399 458,375 230,-22 398,-227 375,-458l-1238 -12553c110,-53 206,-125 282,-203zm-1039 1059l-782 671 -819 -702 15 -159 804 -965 757 909 24 245zm-860 -3111c1,440 58,846 163,1201l-84 101 -526 -631 447 -671zm81 -876l-3 4 -256 -385 354 0c-38,121 -71,248 -96,381zm-254 381l-265 398 66 -696 199 298zm-388 1684l366 440 -461 553 95 -993zm-228 2400l546 468 -643 551 97 -1019zm1889 1953l-1022 727 -1052 -748 30 -312 1022 -876 986 845 36 364zm-2119 459l737 524 -844 600 107 -1125zm2345 1831l-1248 794 -1270 -809 13 -141 1257 -895 1231 876 17 174zm-2563 453l925 589 -1045 665 119 -1254zm2793 1885l-1479 869 -1493 -877 9 -95 1485 -945 1467 933 11 115zm-3016 451l1124 661 -1258 739 133 -1400zm1537 903l1624 954 -1624 869 -1624 -869 1624 -954zm413 -242l1111 -653 137 1386 -1248 -733zm-23 -2407l904 -575 121 1228 -1025 -653zm-29 -2349l708 -504 107 1084 -815 -580zm-39 -2469l511 -438 94 956 -605 -519zm-2215 10304l140 -1477 1309 701 -1450 776zm2337 -776l1303 -697 145 1472 -1448 -775z"/>
  </g>
 </g>
</svg>
