<?xml version="1.0" encoding="UTF-8"?>
<!DOCTYPE svg PUBLIC "-//W3C//DTD SVG 1.1//EN" "http://www.w3.org/Graphics/SVG/1.1/DTD/svg11.dtd">
<!-- Creator: CorelDRAW X6 -->
<svg xmlns="http://www.w3.org/2000/svg" xml:space="preserve" width="210mm" height="297mm" version="1.1" style="shape-rendering:geometricPrecision; text-rendering:geometricPrecision; image-rendering:optimizeQuality; fill-rule:evenodd; clip-rule:evenodd"
viewBox="0 0 21000 29700"
 xmlns:xlink="http://www.w3.org/1999/xlink"
 enable-background="new 0 0 100 100">
 <defs>
  <style type="text/css">
   <![CDATA[
    .str0 {stroke:#2B2A29;stroke-width:500}
    .fil4 {fill:none}
    .fil2 {fill:#E31E24}
    .fil0 {fill:black}
    .fil3 {fill:#DD2A1B}
    .fil5 {fill:#DE2B1B}
    .fil1 {fill:#E02514}
   ]]>
  </style>
 </defs>
 <g id="Layer_x0020_1">
  <metadata id="CorelCorpID_0Corel-Layer"/>
  <path class="fil0" d="M10014 11100c-382,72 -719,247 -969,489l-1680 38 0 59c0,105 -85,190 -190,190l-43 0c-105,0 -190,-70 -190,-176l0 -64 -2516 57c0,105 -85,190 -190,190l0 0c-105,0 -190,-70 -190,-176l-2673 64c0,0 -542,-122 0,-175l8642 -497z"/>
  <path class="fil0" d="M12447 12711c0,862 -817,1562 -1824,1562 -1008,0 -1824,-699 -1824,-1562 0,-863 817,-1562 1824,-1562 1008,0 1824,700 1824,1562zm-1859 0c-348,0 -630,282 -630,630 0,348 282,630 630,630 348,0 630,-282 630,-630 0,-348 -282,-630 -630,-630zm-937 -1027l-69 0 -325 591 201 0 193 -591zm86 591l187 -591 -177 0 -197 591 187 0zm825 0l0 -591 -520 0 -189 591 709 0zm1227 0l201 0 -325 -591 -69 0 193 591zm-93 0l-197 -591 -177 0 187 591 187 0zm-303 0l-189 -591 -520 0 0 591 709 0z"/>
  <path class="fil0" d="M11234 11100c382,72 719,247 969,489l1680 38 0 59c0,105 85,190 190,190l43 0c105,0 190,-70 190,-176l0 -64 2516 57c0,105 85,190 190,190l0 0c105,0 190,-70 190,-176l2673 64c0,0 543,-122 0,-175l-8642 -497z"/>
  <path class="fil0" d="M10743 10982l-62 -2625c0,0 -63,-171 -122,0l-154 2625c0,0 137,-29 338,0z"/>
  <path class="fil0" d="M10378 9124l-2598 32c0,0 -171,-14 0,-73l2625 -120 -27 161z"/>
  <path class="fil0" d="M10829 9124l2598 32c0,0 171,-14 0,-73l-2625 -120 27 161z"/>
  <path class="fil1" d="M10622 14273c1008,0 1824,-700 1824,-1562 0,-862 -817,-1562 -1824,-1562 -1008,0 -1824,699 -1824,1562 0,863 817,1562 1824,1562zm-35 -1562c348,0 630,282 630,630 0,348 -282,630 -630,630 -348,0 -630,-282 -630,-630 0,-348 282,-630 630,-630zm-26 -1027l0 591 -709 0 189 -591 520 0zm-638 0l-187 591 -187 0 197 -591 177 0zm-273 0l-193 591 -201 0 325 -591 69 0zm2339 591l-201 0 -193 -591 69 0 325 591zm-293 0l-187 0 -187 -591 177 0 197 591zm-492 -591l189 591 -709 0 0 -591 520 0z"/>
  <path class="fil2" d="M14307 11637l2516 57c0,105 85,190 190,190 105,0 190,-70 190,-176l2673 64c0,0 543,-122 0,-175l-8642 -497c382,72 719,247 969,489l1680 38 0 59c0,105 85,190 190,190l43 0c105,0 190,-70 190,-176l0 -64z"/>
  <path class="fil2" d="M10829 9124l2598 32c0,0 171,-14 0,-73l-2625 -120 27 161z"/>
  <path class="fil2" d="M10743 10982l-62 -2625c0,0 -63,-171 -122,0l-154 2625c0,0 137,-29 338,0z"/>
  <path class="fil2" d="M7780 9156l2598 -32 27 -161 -2625 120c-171,59 0,73 0,73z"/>
  <path class="fil2" d="M10014 11100l-8642 497c-542,53 0,175 0,175l2673 -64c0,105 85,176 190,176 105,0 190,-85 190,-190l2516 -57 0 64c0,105 85,176 190,176l43 0c105,0 190,-85 190,-190l0 -59 1680 -38c251,-242 588,-417 969,-489z"/>
  <ellipse class="fil3" transform="matrix(0.707107 -0.707107 0.707107 0.707107 13817.7 12462.8)" rx="66" ry="397"/>
  <ellipse class="fil3" transform="matrix(0.707107 -0.707107 0.707107 0.707107 14360.2 13014.7)" rx="66" ry="397"/>
  <ellipse class="fil3" transform="matrix(0.713241 0.700919 -0.702341 0.711843 14366.4 12464.7)" rx="66" ry="397"/>
  <ellipse class="fil3" transform="matrix(0.713241 0.700919 -0.702341 0.711843 13818.2 13010.9)" rx="66" ry="397"/>
  <ellipse class="fil3" transform="matrix(0.707107 -0.707107 0.707107 0.707107 14085.7 12744.6)" rx="35" ry="34"/>
  <ellipse class="fil3" transform="matrix(0.707107 -0.707107 0.707107 0.707107 6839.46 12395.7)" rx="66" ry="397"/>
  <ellipse class="fil3" transform="matrix(0.707107 -0.707107 0.707107 0.707107 7382.01 12947.6)" rx="66" ry="397"/>
  <ellipse class="fil3" transform="matrix(0.713241 0.700919 -0.702341 0.711843 7388.24 12397.6)" rx="66" ry="397"/>
  <ellipse class="fil3" transform="matrix(0.713241 0.700919 -0.702341 0.711843 6839.97 12943.8)" rx="66" ry="397"/>
  <ellipse class="fil3" transform="matrix(0.707107 -0.707107 0.707107 0.707107 7107.52 12677.5)" rx="35" ry="34"/>
  <ellipse class="fil3" transform="matrix(0.707107 -0.707107 0.707107 0.707107 16751.9 12473.4)" rx="66" ry="397"/>
  <ellipse class="fil3" transform="matrix(0.707107 -0.707107 0.707107 0.707107 17294.4 13025.3)" rx="66" ry="397"/>
  <ellipse class="fil3" transform="matrix(0.713241 0.700919 -0.702341 0.711843 17300.6 12475.3)" rx="66" ry="397"/>
  <ellipse class="fil3" transform="matrix(0.713241 0.700919 -0.702341 0.711843 16752.4 13021.6)" rx="66" ry="397"/>
  <ellipse class="fil3" transform="matrix(0.707107 -0.707107 0.707107 0.707107 17019.9 12755.2)" rx="35" ry="34"/>
  <ellipse class="fil3" transform="matrix(0.707107 -0.707107 0.707107 0.707107 3990.75 12406.6)" rx="66" ry="397"/>
  <ellipse class="fil3" transform="matrix(0.707107 -0.707107 0.707107 0.707107 4533.3 12958.5)" rx="66" ry="397"/>
  <ellipse class="fil3" transform="matrix(0.713241 0.700919 -0.702341 0.711843 4539.53 12408.5)" rx="66" ry="397"/>
  <ellipse class="fil3" transform="matrix(0.713241 0.700919 -0.702341 0.711843 3991.26 12954.8)" rx="66" ry="397"/>
  <ellipse class="fil3" transform="matrix(0.707107 -0.707107 0.707107 0.707107 4258.81 12688.4)" rx="35" ry="34"/>
  <ellipse class="fil4 str0" cx="10562" cy="11684" rx="10112" ry="9392"/>
  <path class="fil5" d="M11217 13341c0,-348 -282,-630 -630,-630 -348,0 -630,282 -630,630 0,348 282,630 630,630 348,0 630,-282 630,-630z"/>
 </g>
</svg>
