<svg xmlns="http://www.w3.org/2000/svg" xmlns:xlink="http://www.w3.org/1999/xlink" version="1.1" x="0px" y="0px" viewBox="0 0 100 125" enable-background="new 0 0 100 100" xml:space="preserve"><path d="M77.539,63.081h-6.939l-7.699-35.42h2.2v-4.218h-3.117L58.59,7.831h-2.335h-3.537h-0.912V5h-4.772v2.831h-0.68h-3.593  h-2.278l-3.394,15.612h-3.172v4.218h2.255l-7.7,35.42h-6.939v4.218h6.022L21.533,95h5.871l0.522-2.402l19.108-11.801V95h4.772  V80.653l19.34,11.945L71.669,95h5.871l-6.022-27.701h6.022V63.081z M41.504,30.143l5.53,3.562v0.174l-7.349,4.632L41.504,30.143z   M64.729,63.081H51.806v-8.297l12.89,8.143L64.729,63.081z M51.806,42.043v-5.264l8.173,5.264H51.806z M57.745,44.583l-5.938,3.739  v-3.739H57.745z M47.034,42.043h-8.116l8.116-5.114V42.043z M47.034,44.583v3.514l-5.562-3.514H47.034z M52.498,51.55l8.554-5.385  l2.719,12.507L52.498,51.55z M51.984,33.81l5.613-3.537l1.808,8.317L51.984,33.81z M51.806,30.872v-3.211h5.095L51.806,30.872z   M47.034,30.622l-4.596-2.96h4.596V30.622z M46.684,51.547l-11.392,7.172l2.746-12.634L46.684,51.547z M47.034,54.99v8.091h-12.69  l0.025-0.117L47.034,54.99z M47.034,67.299v6.526l-10.567-6.526H47.034z M51.806,67.299h10.798l-10.798,6.669V67.299z   M54.356,15.365l1.756,8.079h-4.306v-8.079H54.356z M44.716,15.365h2.317v8.079H42.96L44.716,15.365z M33.042,69.064l13.352,8.247  L28.901,88.116L33.042,69.064z M52.678,77.311l13.352-8.247l4.141,19.051L52.678,77.311z"/><text x="0" y="115" fill="#000000" font-size="5px" font-weight="bold" font-family="'Helvetica Neue', Helvetica, Arial-Unicode, Arial, Sans-serif">Created by Nicole Kathryn Griffing</text><text x="0" y="120" fill="#000000" font-size="5px" font-weight="bold" font-family="'Helvetica Neue', Helvetica, Arial-Unicode, Arial, Sans-serif">from the Noun Project</text></svg>