<svg xmlns="http://www.w3.org/2000/svg" xmlns:xlink="http://www.w3.org/1999/xlink" version="1.1" x="0px" y="0px" viewBox="0 0 77.273 125" enable-background="new 0 0 77.273 100" xml:space="preserve"><path d="M62.78,23.156c0.004,5.338-10.808,7.128-24.145,7.128c-13.333,0-23.995-2.349-24.141-7.128  c-0.146-4.78,10.809-7.134,24.141-7.134C51.972,16.022,62.776,17.818,62.78,23.156z"/><path d="M38.639,33.556c-12.635,0-22.879-3.026-22.879-6.76v13.601v7.89c0,3.732,10.244,6.756,22.879,6.756  c12.635,0,22.878-3.023,22.878-6.756v-7.89V26.796C61.517,30.53,51.274,33.556,38.639,33.556z"/><path d="M38.639,57.708c-12.635,0-22.879-3.024-22.879-6.76v13.603v7.888c0,3.731,10.244,6.76,22.879,6.76  c12.635,0,22.878-3.028,22.878-6.76v-7.888V50.948C61.517,54.684,51.274,57.708,38.639,57.708z"/><path d="M60.516,77.229c-2.859,2.77-11.572,4.786-21.881,4.786c-10.31,0-19.021-2.017-21.881-4.786  c-0.645,0.624-0.998,1.286-0.998,1.971c0,3.732,10.244,6.76,22.879,6.76c12.636,0,22.878-3.027,22.878-6.76  C61.513,78.516,61.162,77.854,60.516,77.229z"/><text x="0" y="115" fill="#000000" font-size="5px" font-weight="bold" font-family="'Helvetica Neue', Helvetica, Arial-Unicode, Arial, Sans-serif">Created by Philippe Vossel</text><text x="0" y="120" fill="#000000" font-size="5px" font-weight="bold" font-family="'Helvetica Neue', Helvetica, Arial-Unicode, Arial, Sans-serif">from the Noun Project</text></svg>