<svg xmlns="http://www.w3.org/2000/svg" xmlns:xlink="http://www.w3.org/1999/xlink" xmlns:a="http://ns.adobe.com/AdobeSVGViewerExtensions/3.0/" version="1.1" x="0px" y="0px" viewBox="-5.291 -24.02 100 125" enable-background="new -5.291 -24.02 100 100" xml:space="preserve"><path fill="#000000" d="M19.61,22.074C8.78,22.074,0,31.828,0,43.862h14.723c0.042-7.935,1.847-15.372,4.973-21.788  C19.667,22.075,19.639,22.074,19.61,22.074z"/><rect x="51.776" y="27.062" fill="#000000" width="6.897" height="17.085"/><path fill="#000000" d="M91.251,44.147C91.251,19.766,74.599,0,54.059,0S16.868,19.766,16.868,44.147H50.07V24.516h10.362v19.632  H91.251z M43.749,33.918h-6.396v-9.564h6.396V33.918z M67.444,24.354h6.397v9.564h-6.397V24.354z"/><text x="-5.291" y="90.98" fill="#000000" font-size="5px" font-weight="bold" font-family="'Helvetica Neue', Helvetica, Arial-Unicode, Arial, Sans-serif">Created by Adam  Mullin</text><text x="-5.291" y="95.98" fill="#000000" font-size="5px" font-weight="bold" font-family="'Helvetica Neue', Helvetica, Arial-Unicode, Arial, Sans-serif">from the Noun Project</text></svg>