<svg xmlns="http://www.w3.org/2000/svg" xmlns:xlink="http://www.w3.org/1999/xlink" version="1.1" x="0px" y="0px" viewBox="0 0 100 125" enable-background="new 0 0 100 100" xml:space="preserve"><path fill-rule="evenodd" clip-rule="evenodd" fill="#000000" d="M88.18,67.893c-7.129,7.129-19.621,7.029-32.039,0.927  l1.533,19.914h30.834c1.874,0,3.335,1.403,3.263,3.133C91.699,93.597,90.121,95,88.247,95H11.492c-1.874,0-3.335-1.403-3.263-3.133  c0.072-1.73,1.65-3.133,3.524-3.133h11.763l9.161-40.307c-9.45-13.504-12.296-29.349-5.88-38.333  c1.031-1.453,1.282-1.747,2.423-2.888c5.883-5.88,22.318,0.875,37.881,15.148l7.375-5.836c-0.914-2.91-0.256-6.209,2.05-8.515  c3.303-3.303,8.659-3.303,11.962,0c3.303,3.303,3.303,8.659,0,11.962c-2.298,2.298-5.579,2.959-8.482,2.06l-5.856,7.4  c14.091,15.477,20.725,31.748,14.88,37.593 M47.232,71.572l3.366,6.876l-0.76-9.866L47.232,71.572z M47.009,63.194  c-2.297-1.717-4.542-3.64-6.699-5.763l4.213,8.608 M48.783,88.734l-5.937-12.129L32.277,88.734H48.783z M31.775,80.669l8.363-9.597  l-4.221-8.624L31.775,80.669z M34.072,12.052c-3.898,3.898,4.16,18.277,17.999,32.116c13.839,13.839,28.218,21.898,32.116,18  c3.496-3.496-2.642-15.422-13.924-27.828l-6.693,8.458c-1.459,1.459-4.846,0.438-7.565-2.281l-0.008-0.008  c-2.719-2.719-3.74-6.106-2.281-7.565l8.472-6.704C49.68,14.791,37.595,8.529,34.072,12.052z"/><text x="0" y="115" fill="#000000" font-size="5px" font-weight="bold" font-family="'Helvetica Neue', Helvetica, Arial-Unicode, Arial, Sans-serif">Created by Daniel Boros</text><text x="0" y="120" fill="#000000" font-size="5px" font-weight="bold" font-family="'Helvetica Neue', Helvetica, Arial-Unicode, Arial, Sans-serif">from the Noun Project</text></svg>