<svg xmlns="http://www.w3.org/2000/svg" xmlns:xlink="http://www.w3.org/1999/xlink" version="1.0" x="0px" y="0px" viewBox="0 0 100 125" enable-background="new 0 0 100 100" xml:space="preserve"><path fill="#000000" d="M17.117,44.136l-0.583-2.175c-0.536-2,0.651-4.057,2.651-4.592c2-0.537,4.057,0.651,4.593,2.651l0.743,2.776  l0.916,3.416l2.812,1.312v3.509v3.388l-5.454-2.544l-3.205,1.494l-2.604,1.215c-1.877,0.875-4.108,0.063-4.984-1.813  s-0.063-4.108,1.814-4.984l2.041-0.951L17.117,44.136L17.117,44.136z M66.208,65.224l9.996,4.661l3.205-1.494l2.605-1.215  c1.877-0.875,4.107-0.063,4.982,1.814c0.876,1.877,0.063,4.108-1.813,4.983l-2.04,0.951l-1.26,2.7l0.583,2.175  c0.536,2.001-0.651,4.057-2.651,4.594c-2.001,0.535-4.057-0.652-4.594-2.652l-0.743-2.775l-0.915-3.416l-12.059-5.623L66.208,65.224  L66.208,65.224z M44.913,59.478h9.588v-0.837c0-3.616-1.92-6.783-4.795-8.54c-2.875,1.756-4.793,4.923-4.793,8.54V59.478  L44.913,59.478z M53.876,44.478c0,2.761,2.238,5,5,5s5-2.239,5-5s-2.238-5-5-5S53.876,41.717,53.876,44.478L53.876,44.478z   M35.125,44.478c0,2.761,2.239,5,5,5c2.762,0,5-2.239,5-5s-2.238-5-5-5C37.364,39.478,35.125,41.717,35.125,44.478L35.125,44.478z   M28.25,35.728c0-11.736,9.514-21.25,21.25-21.25c11.737,0,21.251,9.514,21.251,21.25c0,4.478-1.385,8.632-3.75,12.059v6.691  c0,2.33-1.594,4.288-3.75,4.843c0,5.681-4.478,10.157-10,10.157h-7.088c-5.523,0-10-4.477-10-10C33.8,59.01,32,56.954,32,54.478  v-6.691C29.635,44.36,28.25,40.206,28.25,35.728L28.25,35.728z M70.751,47.523l2.812-1.312l0.915-3.416l0.743-2.775  c0.537-2.001,2.593-3.188,4.594-2.652c2,0.536,3.188,2.592,2.651,4.593l-0.583,2.175l1.26,2.7l2.04,0.952  c1.877,0.875,2.689,3.106,1.813,4.983c-0.875,1.877-3.105,2.689-4.982,1.813l-2.605-1.214l-3.205-1.495l-5.453,2.544v-3.388V47.523  L70.751,47.523z M17.117,77.626l-1.259-2.701l-2.041-0.951c-1.877-0.875-2.689-3.106-1.814-4.983s3.106-2.689,4.984-1.813  l2.604,1.214l3.205,1.495l9.997-4.662l4.703,4.703L25.438,75.55l-0.916,3.416l-0.743,2.775c-0.536,2.001-2.593,3.188-4.593,2.652  c-2-0.536-3.188-2.593-2.651-4.594L17.117,77.626L17.117,77.626z"/><text x="0" y="115" fill="#000000" font-size="5px" font-weight="bold" font-family="'Helvetica Neue', Helvetica, Arial-Unicode, Arial, Sans-serif">Created by Sascha Elmers</text><text x="0" y="120" fill="#000000" font-size="5px" font-weight="bold" font-family="'Helvetica Neue', Helvetica, Arial-Unicode, Arial, Sans-serif">from the Noun Project</text></svg>