<?xml version="1.0" encoding="utf-8"?>
<svg x="0px" y="0px" viewBox="0 0 113.387 141.73125000000002" xmlns="http://www.w3.org/2000/svg">
  <g>
    <path fill-rule="evenodd" clip-rule="evenodd" d="M72.411,25.591c-2.302-0.149-7.446-0.206-9.426-0.206   c0,2.757-0.055,5.618,0.057,8.472c0.018,0.452,0.714,1.008,1.222,1.29c3.669,2.033,7.383,3.984,11.048,6.024   c0.617,0.344,1.066,0.99,1.594,1.497c-0.704,0.197-1.405,0.398-2.11,0.59c-0.29,0.078-0.587,0.135-1.403,0.317   c-3.448-0.383-7.903-0.116-10.417-0.116c0,0.553,0.04,1.24-0.006,1.922c-0.548,8.195,0.668,16.2,2.548,24.143   c0.604,2.549,1.17,5.118,1.542,7.708c1.113,7.744,5.157,14.378,8.041,21.448c0.241,0.591,1.216,0.883,2.045,1.445   c0,0.223,0,0.731,0,1.412c-3.311,0-6.62,0-10.165,0c-0.026-0.526-0.057-1.128-0.091-1.821c0.721-0.089,1.283-0.157,2.139-0.262   c-1.12-1.646-2.13-3.145-3.156-4.632c-2.196-3.186-4.393-6.372-6.607-9.545c-0.875-1.254-3.975-1.626-4.795-0.477   c-3.418,4.786-6.756,9.631-10.258,14.649c0.888,0.102,1.5,0.172,2.175,0.25c0,0.648,0,1.208,0,1.889c-3.405,0-6.714,0-10.144,0   c0-0.643,0-1.195,0-1.715c0.157-0.102,0.27-0.236,0.363-0.226c1.238,0.153,1.58-0.67,2.07-1.605   c5.904-11.28,8.687-23.537,11.312-35.847c0.436-2.047,1.098-4.09,1.19-6.156c0.187-4.175,0.056-8.366,0.056-12.666   c-2.327,0-11.044-0.056-11.168-0.083c-0.912-0.195-1.826-0.381-2.74-0.57c0.729-0.648,1.373-1.445,2.203-1.92   c3.471-1.984,7.009-3.85,10.489-5.818c0.495-0.279,1.134-0.873,1.152-1.343c0.109-2.739,0.054-5.483,0.054-8.264   c-1.66,0-3.182,0.167-8.188,0.039c-1.021-0.126-1.517-0.13-1.975-0.26c-0.452-0.128-0.867-0.384-1.299-0.584   c0.305-0.378,0.535-0.884,0.926-1.116c2.877-1.702,5.824-3.291,8.664-5.051c0.869-0.538,1.553-1.442,2.184-2.282   c0.865-1.151,1.541-2.444,2.402-3.597c1.6-2.143,2.894-4.334,2.456-7.193c-0.067-0.44,0.524-0.98,0.812-1.474   c0.219,0.487,0.688,1.018,0.613,1.455c-0.502,2.95,1.014,5.124,2.547,7.36c0.99,1.443,1.74,3.049,2.67,4.537   c0.254,0.406,0.736,0.706,1.171,0.956c2.84,1.635,5.711,3.218,8.537,4.877c0.627,0.369,1.114,0.976,1.666,1.473   C73.784,24.852,73.157,25.189,72.411,25.591z M73.41,98.626c-2.03-4.652-4.01-9.202-6.015-13.741   c-0.113-0.256-0.419-0.603-0.643-0.608c-2.037-0.047-4.077-0.027-6.419-0.027c3.158,4.572,6.13,8.733,8.932,13.007   C70.26,98.774,71.375,99.248,73.41,98.626z M40.002,98.639c1.744,0.53,2.885,0.312,3.859-1.188   c1.996-3.073,4.178-6.024,6.277-9.031c0.915-1.312,1.813-2.635,2.891-4.201c-1.164,0-1.967,0.125-2.718-0.021   c-3.186-0.623-4.757,0.782-5.776,3.766C43.299,91.587,41.557,95.038,40.002,98.639z M64.283,74.581   c-2.422-1.045-4.557-1.984-6.711-2.874c-0.334-0.138-0.809-0.169-1.135-0.039c-2.252,0.897-4.48,1.851-7.059,2.928   c2.435,1.16,4.477,2.172,6.559,3.091c0.416,0.185,1.053,0.165,1.48-0.017C59.634,76.728,61.814,75.702,64.283,74.581z    M57.043,33.966c1.546-1.972,2.936-3.744,4.306-5.49c-3.861-4.425-4.72-4.405-8.475,0.156   C54.183,30.307,55.508,32.002,57.043,33.966z M51.631,67.572c3.914,2.83,6.783,2.83,10.825,0.001   C57.822,64.373,56.195,64.373,51.631,67.572z M57.128,10.348c-1.589,2.391-3.005,4.524-4.606,6.935c3.174,0,5.961,0,9.172,0   C60.112,14.881,58.732,12.786,57.128,10.348z M61.59,57.518c-2.242,0-4.389-0.001-6.537,0c-2.659,0.001-2.659,0.001-2.949,2.886   c3.312,0,6.613,0,10.09,0C61.989,59.428,61.807,58.557,61.59,57.518z M66.699,82.783c-0.53-2.645-0.983-4.905-1.467-7.313   c-2.39,1.084-4.565,2.07-7.157,3.245C61.096,80.141,63.71,81.373,66.699,82.783z M41.139,41.556c3.661,0,6.771,0,9.962,0   c0-1.77,0-3.48,0-5.455C47.808,37.905,44.729,39.591,41.139,41.556z M57.16,49.847c-1.479,2.139-2.794,4.045-4.242,6.141   c2.942,0,5.559,0,8.463,0C59.935,53.884,58.647,52.011,57.16,49.847z M63.086,41.618c3.184,0,6.256,0,9.328,0   c0.034-0.109,0.068-0.217,0.103-0.324c-3.102-1.676-6.201-3.352-9.431-5.097C63.086,38.187,63.086,39.86,63.086,41.618z    M46.767,82.499c2.975-1.351,5.486-2.491,8.398-3.812c-2.475-1.175-4.51-2.141-6.742-3.2   C47.885,77.767,47.383,79.895,46.767,82.499z M52.592,41.6c3.182,0,5.877,0,8.908,0c-1.58-2.02-2.957-3.782-4.457-5.7   C55.51,37.862,54.164,39.586,52.592,41.6z M50.094,82.317c0.043,0.087,0.086,0.174,0.129,0.261c4.193,0,8.385,0,12.577,0   c-1.76-1.134-3.56-2.027-5.399-2.831c-0.426-0.187-1.057-0.233-1.475-0.06C53.959,80.51,52.033,81.432,50.094,82.317z    M52.857,53.952c1.225-1.764,2.205-3.109,3.096-4.512c0.189-0.299,0.213-0.912,0.029-1.201c-0.911-1.44-1.916-2.821-3.125-4.564   C52.857,47.28,52.857,50.358,52.857,53.952z M60.566,18.785c-2.227,0-4.64,0-6.695,0c0.997,1.213,2.07,2.52,3.326,4.05   C58.439,21.342,59.515,20.048,60.566,18.785z M61.307,53.749c0-3.504,0-6.436,0-9.877c-1.345,1.94-2.397,3.461-3.433,4.955   C59,50.44,60.004,51.878,61.307,53.749z M51.16,19.101c-2.604,1.5-4.908,2.827-7.213,4.154c0.064,0.098,0.131,0.195,0.195,0.292   c2.316,0,4.633,0,7.018,0C51.16,22.076,51.16,20.779,51.16,19.101z M70.005,23.611c0.064-0.122,0.128-0.243,0.192-0.364   c-2.308-1.303-4.615-2.606-7.104-4.011c0,1.61,0,2.938,0,4.375C65.475,23.611,67.74,23.611,70.005,23.611z M61.319,39.435   c0-3.171,0-5.833,0-8.96c-1.345,1.705-2.407,3.053-3.511,4.452C58.927,36.364,59.962,37.691,61.319,39.435z M52.807,39.394   c1.361-1.743,2.39-3.06,3.487-4.466c-1.111-1.393-2.163-2.712-3.487-4.371C52.807,33.652,52.807,36.235,52.807,39.394z    M48.885,73.488c2.279-0.949,4.196-1.749,6.51-2.713c-2.049-0.874-3.608-1.54-5.332-2.276   C49.687,70.09,49.335,71.581,48.885,73.488z M58.504,70.789c2.346,0.999,4.161,1.771,6.317,2.69   c-0.369-1.848-0.655-3.274-0.983-4.915C62.034,69.316,60.539,69.94,58.504,70.789z M60.146,43.442c-2.121,0-3.939,0-6.016,0   c1.108,1.549,2.035,2.844,3.062,4.277C58.236,46.209,59.122,44.926,60.146,43.442z M50.532,66.582   c1.847-0.92,3.354-1.672,5.151-2.566c-1.58-0.765-2.768-1.339-4.148-2.006C51.183,63.613,50.896,64.918,50.532,66.582z    M62.484,61.957c-1.44,0.733-2.605,1.326-4.097,2.085c1.819,0.89,3.291,1.608,5.04,2.464   C63.089,64.871,62.815,63.554,62.484,61.957z M56.48,23.601c-1.438-1.315-2.436-2.23-3.641-3.333c0,1.333,0,2.273,0,3.333   C53.923,23.601,54.91,23.601,56.48,23.601z M61.329,23.601c0-1.032,0-1.942,0-3.096c-1.054,1.146-1.925,2.093-2.847,3.096   C59.401,23.601,60.322,23.601,61.329,23.601z M59.521,61.848c-1.793,0-3.405,0-5.188,0C56.135,63.345,57.756,63.636,59.521,61.848z   "/>
  </g>
</svg>