<?xml version="1.0" encoding="utf-8"?>
<svg x="0px" y="0px" viewBox="0 0 50 62.5" xmlns="http://www.w3.org/2000/svg">
  <g>
    <path fill-rule="evenodd" clip-rule="evenodd" fill="#000000" d="M34.851,45.358c-2.745-2.318-5.372-5.564-9.93-5.564   c-4.525,0-7,3.17-9.817,5.332c0.388,2.746-3.054,2.359-2.976,0.465c0-0.889,0.696-1.471,1.894-1.471   c5.139-6.566,8.73-15.145,9.776-26.042c0.155-1.431,0.577-3.286,0.349-4.714c-0.116-0.736-0.813-0.852-0.773-1.779   c0-2.011,2.859-1.662,3.016-0.116c0.038,0.543-0.542,0.927-0.695,1.699c-0.233,1.239,0.153,3.168,0.347,4.91   c0.924,9.081,3.399,16.999,7.572,23.145c0.658,0.967,1.776,2.668,2.242,2.896c0.619,0.35,1.276,0.039,1.661,0.541   C39.175,46.905,34.503,48.257,34.851,45.358L34.851,45.358z M19.896,37.669c-0.35,0.928-1.16,2.01-1.316,2.781   c1.39-0.926,3.168-1.932,5.333-2.125c3.051-0.23,5.679,1.082,7.458,2.01c-0.541-0.811-1.042-1.699-1.431-2.666   C26.581,37.669,23.257,37.669,19.896,37.669L19.896,37.669z M27.932,36.007c-1.121-0.85-2.048-1.932-3.13-2.781   c-0.965,1.003-2.125,1.852-3.092,2.857C23.72,36.046,26.079,36.239,27.932,36.007L27.932,36.007z M22.6,31.216   c-0.386,0.967-0.732,1.969-1.119,2.898c0.889-0.465,1.351-1.354,2.202-1.816C23.451,31.794,23.099,31.448,22.6,31.216L22.6,31.216z    M27.159,31.101c-0.231,0.539-0.965,0.578-1.119,1.197c0.924,0.543,1.427,1.469,2.317,2.01   C27.972,33.226,27.661,32.067,27.159,31.101L27.159,31.101z M24.263,30.638c0.192,0.15,0.385,0.309,0.539,0.463   c0.389-0.041,0.503-0.35,0.695-0.581C25.11,30.599,24.455,30.403,24.263,30.638L24.263,30.638z M24.802,21.748   c-0.347,2.785-0.889,4.716-1.545,7.228c1.08-0.079,2.437,0.156,3.324-0.117C25.693,26.579,25.536,23.952,24.802,21.748z"/>
    <path fill-rule="evenodd" clip-rule="evenodd" fill="#000000" d="M33.729,11.469c-0.078,0.543,0.114,0.772,0.114,1.237   c-2.044-0.386-2.896,0.117-4.79-0.426c0.235-0.423,1.585,0.31,1.315-0.579C31.523,11.662,32.686,11.625,33.729,11.469z"/>
    <path fill-rule="evenodd" clip-rule="evenodd" fill="#000000" d="M17.885,11.702c0.927,0,1.626,0.193,2.589,0.114   c-0.309,0.232-0.81,0.232-1.352,0.232c-0.347,0.117-0.039,0.193-0.116,0.542c-1.159,0.153-2.047,0.541-3.207,0.697   c-0.153-0.388-0.231-0.852-0.351-1.239C16.301,11.74,17.769,12.707,17.885,11.702z"/>
    <path fill-rule="evenodd" clip-rule="evenodd" fill="#000000" d="M22.907,6.252c-0.308-0.076-0.269,0.154-0.538,0.116   c-0.388-1.12-1.084-1.892-1.47-3.013c0.464-0.04,0.658-0.388,1.119-0.427c0.195,0.772,0.428,1.507,0.581,2.319   c0.193,0,0.231-0.116,0.425-0.116c0.074,0.888,0.232,1.699,0.464,2.475C23.257,7.607,23.024,6.715,22.907,6.252z"/>
    <path fill-rule="evenodd" clip-rule="evenodd" fill="#000000" d="M26.581,6.369c0-0.192-0.192-0.271-0.426-0.231   c0.154-1.082,0.426-2.087,0.539-3.208c0.541-0.113,0.734,0.155,1.237,0.078c-0.193,0.849-0.579,1.429-0.889,2.125   c-0.039,0.233,0.153,0.233,0.345,0.233c-0.111,0.308-0.424,0.887-0.693,1.35c-0.154,0.271-0.539,1.158-0.422,0.776   C26.272,6.987,26.389,6.641,26.581,6.369z"/>
    <path fill-rule="evenodd" clip-rule="evenodd" fill="#000000" d="M29.479,8.611c0.037-0.196-0.077-0.233-0.19-0.233   c0.613-1.004,1.582-1.662,2.55-2.357c0.189,0.386,0.539,0.582,0.653,1.005c-0.81,0.232-1.313,0.773-2.123,1.006   c0,0.23,0.308,0.154,0.23,0.463c-0.81,0.23-1.507,0.617-2.241,1.005C28.32,9.228,29.132,8.841,29.479,8.611z"/>
    <path fill-rule="evenodd" clip-rule="evenodd" fill="#000000" d="M19.896,8.495c-0.891,0.733-2.05-0.849-3.209-0.888   c0-0.581,0.387-0.736,0.427-1.238c0.654,0.426,1.273,0.89,1.776,1.431c0.27,0.038,0.387-0.078,0.349-0.308   c0.695,0.499,1.234,1.195,2.008,1.659C20.859,9.304,20.318,8.687,19.896,8.495z"/>
    <path fill-rule="evenodd" clip-rule="evenodd" fill="#000000" d="M21.48,14.367c0.037,0.31-0.695,0.813-1.007,1.122   c0.426,1.119-1.352,1.816-1.662,2.899c-0.54-0.041-0.615-0.579-1.118-0.657c0.541-0.58,1.197-1.045,1.893-1.471   c0-0.192-0.075-0.271-0.233-0.308C19.935,15.294,20.82,14.948,21.48,14.367z"/>
    <path fill-rule="evenodd" clip-rule="evenodd" fill="#000000" d="M27.702,14.717c0.27-0.078,0.732,0.616,1.118,0.771   c0.349,0.153,0.075-0.348,0.468-0.231c0.77,0.732,1.812,1.16,2.55,1.894c-0.039,0.502-0.506,0.58-0.582,1.005   c-0.657-0.467-1.083-1.199-1.664-1.777c-0.344-0.118-0.076,0.385-0.423,0.229C28.784,15.836,28.2,15.333,27.702,14.717z"/>
  </g>
  <text x="0" y="70" fill="#000000" font-size="5px" font-weight="bold" font-family="'Helvetica Neue', Helvetica, Arial-Unicode, Arial, Sans-serif" style="white-space: pre;">from the Noun Project</text>
</svg>