<svg xmlns:dc="http://purl.org/dc/elements/1.1/" xmlns:cc="http://creativecommons.org/ns#" xmlns:rdf="http://www.w3.org/1999/02/22-rdf-syntax-ns#" xmlns:svg="http://www.w3.org/2000/svg" xmlns="http://www.w3.org/2000/svg" xmlns:sodipodi="http://sodipodi.sourceforge.net/DTD/sodipodi-0.dtd" xmlns:inkscape="http://www.inkscape.org/namespaces/inkscape" version="1.1" x="0px" y="0px" viewBox="0 0 100 100"><g transform="translate(0,-952.36218)"><path style="" d="M 14.82303,1044.5392 50,967.22092 85.17697,1044.5392" fill="none" stroke="#000000" stroke-width="4.64606094" stroke-linecap="round" stroke-linejoin="round" stroke-miterlimit="4" stroke-opacity="1" stroke-dasharray="none" marker-start="none"></path><path style="" d="m 55,15 a 5,5 0 1 1 -10,0 5,5 0 1 1 10,0 z" transform="translate(0,946.36218)" fill="#000000" fill-opacity="1" stroke="none"></path><path style="" d="m 30,1011.3622 40,0 -50,25 60,0 z" fill="none" stroke="#000000" stroke-width="4" stroke-linecap="butt" stroke-linejoin="miter" stroke-miterlimit="4" stroke-opacity="1" stroke-dasharray="none"></path><rect style="" width="40" height="25" x="30" y="971.36218" ry="4.9497476" fill="#000000" fill-opacity="1" stroke="none"></rect><path style="" d="M 94.936535,35 A 44.936535,22.468267 0 1 1 5.0634651,35 44.936535,22.468267 0 1 1 94.936535,35 z" transform="translate(0,946.36218)" fill="none"></path><path style="" d="m 87.938459,14.965179 a 42.903622,42.903622 0 0 1 -0.54559,41.070364" transform="translate(0,948.36218)" fill="none" stroke="#000000" stroke-width="4" stroke-miterlimit="4" stroke-opacity="1" stroke-dasharray="none"></path><path style="" d="m 76.582611,20.962059 a 30.061586,30.061586 0 0 1 -0.09776,28.259467" transform="translate(0,948.36218)" fill="none" stroke="#000000" stroke-width="4" stroke-miterlimit="4" stroke-opacity="1" stroke-dasharray="none"></path><path style="" d="m 87.938459,14.965179 a 42.903622,42.903622 0 0 1 -0.54559,41.070364" transform="matrix(-1,0,0,1,100.38847,948.36218)" fill="none" stroke="#000000" stroke-width="4" stroke-miterlimit="4" stroke-opacity="1" stroke-dasharray="none"></path><path style="" d="m 76.582611,20.962059 a 30.061586,30.061586 0 0 1 -0.09776,28.259467" transform="matrix(-1,0,0,1,100.38847,948.36218)" fill="none" stroke="#000000" stroke-width="4" stroke-miterlimit="4" stroke-opacity="1" stroke-dasharray="none"></path></g></svg>