<svg xmlns="http://www.w3.org/2000/svg" xmlns:xlink="http://www.w3.org/1999/xlink" version="1.1" x="0px" y="0px" viewBox="0 0 100 125" enable-background="new 0 0 100 100" xml:space="preserve"><g><path d="M68.658,90.623h-8.115c-0.015-0.025-0.03-0.048-0.045-0.07l-2.185-12.01c0-0.002,0-0.003-0.001-0.005l-3.826-21.041   c-0.011-0.062-0.028-0.123-0.05-0.182c2.216-0.812,3.523-2.245,4.282-3.517c1.222-2.048,1.297-4.081,1.301-4.167   c0.011-0.351-0.266-0.645-0.617-0.656c-0.357-0.01-0.646,0.265-0.655,0.617c-0.001,0.018-0.067,1.785-1.122,3.553   c-1.252,2.1-3.318,3.273-6.146,3.505h-0.102l-0.812-14.345c0.979-0.069,1.752-0.884,1.752-1.881c0-1.042-0.846-1.887-1.888-1.887   s-1.887,0.845-1.887,1.887c0,0.997,0.773,1.812,1.752,1.881l-0.812,14.345h-0.157c-6.928-0.589-7.205-6.78-7.213-7.057   c-0.01-0.35-0.299-0.625-0.654-0.618c-0.351,0.009-0.628,0.302-0.62,0.653c0.003,0.085,0.07,2.119,1.283,4.168   c0.756,1.277,2.065,2.718,4.298,3.528c-0.019,0.051-0.035,0.104-0.046,0.158l-4.1,21.084l0,0l-2.344,12.055h-8.587   c-0.568,0-1.029,0.461-1.029,1.029s0.461,1.029,1.029,1.029h9.431c0.002,0,0.004,0,0.006,0c0.001,0,0.002,0,0.003,0h27.875   c0.568,0,1.028-0.461,1.028-1.029S69.227,90.623,68.658,90.623z M56.59,80.569l1.467,8.071l-6.036-4.567L56.59,80.569z    M50.317,82.784l-5.411-4.094l5.442-4.843l5.344,4.814L50.317,82.784z M51.896,72.471l2.771-2.468l1.08,5.938L51.896,72.471z    M50.357,71.083l-3.406-3.069l3.433-3.113l3.428,3.108L50.357,71.083z M51.917,63.511l1.349-1.222l0.531,2.928L51.917,63.511z    M50.384,62.121l-2.394-2.17l0.241-1.24h4.383l0.217,1.191L50.384,62.121z M47.531,62.313l1.321,1.197l-1.886,1.71L47.531,62.313z    M46.043,69.967l2.767,2.494l-3.932,3.499L46.043,69.967z M43.981,80.572l4.642,3.512l-6.258,4.8L43.981,80.572z M50.326,85.373   l6.938,5.25H43.481L50.326,85.373z"/><path d="M49.85,27.083c-4.906,0-9.539,2.387-12.394,6.383c-0.567,0.793-0.383,1.897,0.411,2.464   c0.794,0.567,1.897,0.383,2.464-0.411c2.193-3.071,5.751-4.904,9.519-4.904c3.996,0,7.673,2.01,9.838,5.376   c0.337,0.525,0.906,0.811,1.487,0.811c0.328,0,0.658-0.091,0.954-0.281c0.82-0.528,1.058-1.621,0.53-2.441   C59.842,29.699,55.053,27.083,49.85,27.083z"/><path d="M67.201,32.235c0.458,0,0.921-0.127,1.335-0.393c1.149-0.739,1.481-2.269,0.743-3.417   c-4.304-6.692-11.617-10.687-19.563-10.687c-7.492,0-14.568,3.645-18.927,9.748c-0.794,1.112-0.536,2.656,0.575,3.45   c1.112,0.793,2.656,0.536,3.45-0.575c3.433-4.807,9.004-7.676,14.902-7.676c6.256,0,12.015,3.146,15.403,8.415   C65.592,31.835,66.388,32.235,67.201,32.235z"/><path d="M77.598,22.043c-6.161-9.581-16.633-15.301-28.01-15.301c-5.388,0-10.741,1.319-15.48,3.813   c-4.584,2.412-8.602,5.92-11.619,10.145c-1.021,1.429-0.69,3.415,0.739,4.435c1.429,1.021,3.415,0.689,4.436-0.739   c5.051-7.072,13.247-11.294,21.924-11.294c9.204,0,17.676,4.628,22.661,12.38c0.607,0.945,1.632,1.461,2.678,1.461   c0.589,0,1.185-0.164,1.717-0.506C78.12,25.488,78.547,23.521,77.598,22.043z"/></g><text x="0" y="115" fill="#000000" font-size="5px" font-weight="bold" font-family="'Helvetica Neue', Helvetica, Arial-Unicode, Arial, Sans-serif">Created by Ryan Dell</text><text x="0" y="120" fill="#000000" font-size="5px" font-weight="bold" font-family="'Helvetica Neue', Helvetica, Arial-Unicode, Arial, Sans-serif">from the Noun Project</text></svg>