<?xml version="1.0" encoding="UTF-8"?>
<!DOCTYPE svg PUBLIC "-//W3C//DTD SVG 1.1//EN" "http://www.w3.org/Graphics/SVG/1.1/DTD/svg11.dtd">
<!-- Creator: CorelDRAW X6 -->
<svg xmlns="http://www.w3.org/2000/svg" xml:space="preserve" width="6mm" height="8.48571mm" version="1.1" style="shape-rendering:geometricPrecision; text-rendering:geometricPrecision; image-rendering:optimizeQuality; fill-rule:evenodd; clip-rule:evenodd"
viewBox="0 0 600 849"
 xmlns:xlink="http://www.w3.org/1999/xlink"
 xmlns:dc="http://purl.org/dc/elements/1.1/"
 xmlns:cc="http://creativecommons.org/ns#"
 xmlns:rdf="http://www.w3.org/1999/02/22-rdf-syntax-ns#"
 xmlns:svg="http://www.w3.org/2000/svg"
 xmlns:sodipodi="http://sodipodi.sourceforge.net/DTD/sodipodi-0.dtd"
 xmlns:inkscape="http://www.inkscape.org/namespaces/inkscape"
 enable-background="new 0 0 515.91 728.5">
 <defs>
  <style type="text/css">
   <![CDATA[
    .str0 {stroke:#2B2A29;stroke-width:0.571429}
    .str1 {stroke:#2B2A29;stroke-width:2.14286}
    .fil2 {fill:#7688A1}
    .fil0 {fill:black}
    .fil1 {fill:#DD2A1B}
   ]]>
  </style>
 </defs>
 <g id="Layer_x0020_1">
  <metadata id="CorelCorpID_0Corel-Layer"/>
  <path class="fil0" d="M194 79c-3,0 -6,1 -8,3 -2,2 -3,5 -3,8 0,3 1,5 3,7l91 91c2,2 5,3 7,3 3,0 5,-1 7,-3 2,-2 3,-5 3,-7 0,-3 -1,-5 -3,-7l-91 -91c-2,-2 -5,-3 -7,-3zm-80 23c-15,0 -31,6 -42,18 -23,23 -23,62 0,85l142 160c-50,52 -88,98 -115,134 -11,-9 -21,-17 -30,-22 -6,-3 -11,-5 -16,-7 -5,-1 -12,-2 -18,4 -3,3 -4,7 -4,10 0,3 0,6 1,9 2,5 4,11 8,17 6,11 16,23 28,36 -4,7 -7,13 -9,19 -1,4 -2,7 -2,11 0,4 1,9 5,12 3,3 8,5 12,5 4,0 7,-1 11,-2 6,-2 12,-5 19,-9 13,12 26,22 36,28 6,4 11,6 17,8 3,1 6,1 9,1 3,0 7,-1 10,-4 5,-5 5,-13 4,-18 -1,-5 -4,-10 -7,-16 -5,-9 -13,-19 -22,-30 36,-27 82,-66 134,-116l160 143c24,23 62,23 85,0 23,-23 24,-61 1,-85l-24 -31c3,-5 5,-11 5,-17 1,-8 -1,-17 -7,-23 -5,-5 -13,-8 -20,-8 -4,0 -8,1 -13,3l-76 -96c26,-30 43,-54 53,-73 5,-10 8,-19 9,-27 1,-8 -1,-17 -7,-23 -6,-6 -14,-8 -23,-7 -8,1 -17,4 -27,9 -19,10 -43,27 -74,53l-96 -76c1,-4 3,-8 3,-13 0,-7 -2,-15 -7,-20 -6,-6 -15,-8 -23,-7 -6,1 -11,2 -17,5l-31 -24c-12,-11 -27,-17 -43,-17zm356 252c-3,0 -5,1 -7,3 -2,2 -3,5 -3,7 0,3 1,5 3,7l91 91c2,2 5,3 7,3 3,0 6,-1 8,-3 2,-2 3,-5 3,-8 0,-3 -1,-5 -3,-7l-91 -91c-2,-2 -5,-3 -7,-3z" display="inline"/>
  <path class="fil1 str0" d="M327 254l-96 -76c1,-4 3,-8 3,-13 0,-7 -2,-15 -7,-20 -6,-6 -15,-8 -23,-7 -6,1 -11,2 -17,5l-31 -24c-12,-11 -27,-17 -43,-17 -15,0 -31,6 -42,18 -23,23 -23,62 0,85l142 160c-50,52 -88,98 -115,134 -11,-9 -21,-17 -30,-22 -6,-3 -11,-5 -16,-7 -5,-1 -12,-2 -18,4 -3,3 -4,7 -4,10 0,3 0,6 1,9 2,5 4,11 8,17 6,11 16,23 28,36 -4,7 -7,13 -9,19 -1,4 -2,7 -2,11 0,4 1,9 5,12 3,3 8,5 12,5 4,0 7,-1 11,-2 6,-2 12,-5 19,-9 13,12 26,22 36,28 6,4 11,6 17,8 3,1 6,1 9,1 3,0 7,-1 10,-4 5,-5 5,-13 4,-18 -1,-5 -4,-10 -7,-16 -5,-9 -13,-19 -22,-30 36,-27 82,-66 134,-116l160 143c24,23 62,23 85,0 23,-23 24,-61 1,-85l-24 -31c3,-5 5,-11 5,-17 1,-8 -1,-17 -7,-23 -5,-5 -13,-8 -20,-8 -4,0 -8,1 -13,3l-76 -96c26,-30 43,-54 53,-73 5,-10 8,-19 9,-27 1,-8 -1,-17 -7,-23 -6,-6 -14,-8 -23,-7 -8,1 -17,4 -27,9 -19,10 -43,27 -74,53z"/>
  <path class="fil1 str0" d="M186 97l91 91c2,2 5,3 7,3 3,0 5,-1 7,-3 2,-2 3,-5 3,-7 0,-3 -1,-5 -3,-7l-91 -91c-2,-2 -5,-3 -7,-3 -3,0 -6,1 -8,3 -2,2 -3,5 -3,8 0,3 1,5 3,7z"/>
  <path class="fil1 str1" d="M462 358c-2,2 -3,5 -3,7 0,3 1,5 3,7l91 91c2,2 5,3 7,3 3,0 6,-1 8,-3 2,-2 3,-5 3,-8 0,-3 -1,-5 -3,-7l-91 -91c-2,-2 -5,-3 -7,-3 -3,0 -5,1 -7,3z"/>
  <path class="fil2 str1" d="M471 418l-76 -96c26,-30 43,-54 53,-73 5,-10 8,-19 9,-27 1,-8 -1,-17 -7,-23 -6,-6 -14,-8 -23,-7 -8,1 -17,4 -27,9 -19,10 -43,27 -74,53l-96 -76c1,-4 3,-8 3,-13 0,-7 -2,-15 -7,-20 -6,-6 -15,-8 -23,-7 -6,1 -11,2 -17,5l-31 -24c-12,-11 -27,-17 -43,-17 -15,0 -31,6 -42,18 -23,23 -23,62 0,85l142 160c-50,52 -88,98 -115,134 -11,-9 -21,-17 -30,-22 -6,-3 -11,-5 -16,-7 -5,-1 -12,-2 -18,4 -3,3 -4,7 -4,10 0,3 0,6 1,9 2,5 4,11 8,17 6,11 16,23 28,36 -4,7 -7,13 -9,19 -1,4 -2,7 -2,11 0,4 1,9 5,12 3,3 8,5 12,5 4,0 7,-1 11,-2 6,-2 12,-5 19,-9 13,12 26,22 36,28 6,4 11,6 17,8 3,1 6,1 9,1 3,0 7,-1 10,-4 5,-5 5,-13 4,-18 -1,-5 -4,-10 -7,-16 -5,-9 -13,-19 -22,-30 36,-27 82,-66 134,-116l160 143c24,23 62,23 85,0 23,-23 24,-61 1,-85l-24 -31c3,-5 5,-11 5,-17 1,-8 -1,-17 -7,-23 -5,-5 -13,-8 -20,-8 -4,0 -8,1 -13,3z"/>
  <path class="fil1 str1" d="M284 191c3,0 5,-1 7,-3 2,-2 3,-5 3,-7 0,-3 -1,-5 -3,-7l-91 -91c-2,-2 -5,-3 -7,-3 -3,0 -6,1 -8,3 -2,2 -3,5 -3,8 0,3 1,5 3,7l91 91c2,2 5,3 7,3z"/>
  <path class="fil1 str0" d="M327 254l-96 -76c1,-4 3,-8 3,-13 0,-7 -2,-15 -7,-20 -6,-6 -15,-8 -23,-7 -6,1 -11,2 -17,5l-31 -24c-12,-11 -27,-17 -43,-17 -15,0 -31,6 -42,18 -23,23 -23,62 0,85l142 160c-50,52 -88,98 -115,134 -11,-9 -21,-17 -30,-22 -6,-3 -11,-5 -16,-7 -5,-1 -12,-2 -18,4 -3,3 -4,7 -4,10 0,3 0,6 1,9 2,5 4,11 8,17 6,11 16,23 28,36 -4,7 -7,13 -9,19 -1,4 -2,7 -2,11 0,4 1,9 5,12 3,3 8,5 12,5 4,0 7,-1 11,-2 6,-2 12,-5 19,-9 13,12 26,22 36,28 6,4 11,6 17,8 3,1 6,1 9,1 3,0 7,-1 10,-4 5,-5 5,-13 4,-18 -1,-5 -4,-10 -7,-16 -5,-9 -13,-19 -22,-30 36,-27 82,-66 134,-116l160 143c24,23 62,23 85,0 23,-23 24,-61 1,-85l-24 -31c3,-5 5,-11 5,-17 1,-8 -1,-17 -7,-23 -5,-5 -13,-8 -20,-8 -4,0 -8,1 -13,3l-76 -96c26,-30 43,-54 53,-73 5,-10 8,-19 9,-27 1,-8 -1,-17 -7,-23 -6,-6 -14,-8 -23,-7 -8,1 -17,4 -27,9 -19,10 -43,27 -74,53z"/>
 </g>
</svg>
