<?xml version="1.0" encoding="UTF-8"?>
<!DOCTYPE svg PUBLIC "-//W3C//DTD SVG 1.1//EN" "http://www.w3.org/Graphics/SVG/1.1/DTD/svg11.dtd">
<!-- Creator: CorelDRAW X6 -->
<svg xmlns="http://www.w3.org/2000/svg" xml:space="preserve" width="297mm" height="210mm" version="1.1" style="shape-rendering:geometricPrecision; text-rendering:geometricPrecision; image-rendering:optimizeQuality; fill-rule:evenodd; clip-rule:evenodd"
viewBox="0 0 29700 21000"
 xmlns:xlink="http://www.w3.org/1999/xlink">
 <defs>
  <style type="text/css">
   <![CDATA[
    .str1 {stroke:#FEFEFE;stroke-width:20}
    .str0 {stroke:#FEFEFE;stroke-width:50}
    .fil0 {fill:#E31E24}
   ]]>
  </style>
 </defs>
 <g id="Layer_x0020_1">
  <metadata id="CorelCorpID_0Corel-Layer"/>
  <path class="fil0 str0" d="M3687 7666c10,1159 -385,1334 771,1336l8915 -108c90,2520 254,6278 501,7854 -497,49 -951,109 -1298,206 -219,61 -398,131 -555,228 -157,96 -346,259 -343,527 1,143 65,265 138,347 73,82 157,136 243,184 172,94 372,159 614,217 423,101 977,163 1593,195 78,262 163,496 261,680 65,122 134,230 235,323 100,93 250,174 419,173 169,-1 317,-86 416,-180 99,-94 166,-204 229,-327 95,-186 176,-421 249,-684 616,-43 1169,-114 1590,-223 241,-62 441,-131 611,-228 85,-49 168,-104 240,-188 71,-83 133,-206 132,-349 -2,-269 -194,-428 -353,-521 -159,-93 -339,-161 -559,-218 -348,-91 -803,-143 -1301,-184 219,-1575 423,-4840 469,-7355l8978 -51c1156,-22 538,-254 528,-1413 -10,-1152 33,-1833 -1113,-1847l-2350 -406c-68,-201 -165,-384 -292,-536 -180,-215 -442,-377 -746,-374 -269,2 -510,136 -679,317 -102,109 -176,239 -243,378l-4264 -464c-119,-1384 -296,-2410 -533,-3118 -127,-380 -265,-677 -449,-901 -183,-224 -444,-386 -727,-384 -283,2 -541,169 -720,396 -179,227 -312,527 -433,909 -226,715 -389,1737 -483,3132l-4251 533c-69,-138 -145,-267 -249,-374 -173,-178 -411,-312 -680,-310 -304,3 -568,173 -744,392 -124,154 -218,339 -283,541l-2386 475c-656,77 -1038,447 -1115,813l18 589z"/>
  <path class="fil0 str0" d="M5822 5386l4482 -39c96,1 187,-41 254,-109 68,-68 105,-161 105,-256 -1,-96 -40,-188 -109,-254 -69,-67 -161,-107 -256,-105l-4482 39c-96,-1 -191,37 -259,104 -68,68 -110,165 -109,261 1,96 45,192 114,259 69,67 165,102 261,100z"/>
  <path class="fil0 str1" d="M19081 4909c1,96 40,188 109,254 69,67 161,107 256,105l4482 -39c96,1 191,-37 259,-104 68,-68 110,-165 109,-261 -1,-96 -45,-192 -114,-259 -69,-67 -165,-102 -261,-100l-4482 39c-96,-1 -187,41 -254,109 -68,68 -105,161 -105,256z"/>
 </g>
</svg>
