<?xml version="1.0" encoding="UTF-8"?>
<!DOCTYPE svg PUBLIC "-//W3C//DTD SVG 1.1//EN" "http://www.w3.org/Graphics/SVG/1.1/DTD/svg11.dtd">
<!-- Creator: CorelDRAW X6 -->
<svg xmlns="http://www.w3.org/2000/svg" xml:space="preserve" width="210mm" height="297mm" version="1.1" style="shape-rendering:geometricPrecision; text-rendering:geometricPrecision; image-rendering:optimizeQuality; fill-rule:evenodd; clip-rule:evenodd"
viewBox="0 0 21000 29700"
 xmlns:xlink="http://www.w3.org/1999/xlink"
 enable-background="new 0 0 77.273 100">
 <defs>
  <style type="text/css">
   <![CDATA[
    .str1 {stroke:#2B2A29;stroke-width:20}
    .str0 {stroke:#2B2A29;stroke-width:20}
    .fil1 {fill:none}
    .fil3 {fill:#2B2A29}
    .fil0 {fill:black}
    .fil2 {fill:#F00C1B}
   ]]>
  </style>
 </defs>
 <g id="Layer_x0020_1">
  <metadata id="CorelCorpID_0Corel-Layer"/>
  <path class="fil0" d="M16237 5502c1,1268 -2568,1694 -5737,1694 -3168,0 -5701,-558 -5736,-1694 -35,-1136 2568,-1695 5736,-1695 3169,0 5736,427 5737,1695z"/>
  <path class="fil0" d="M10501 7973c-3002,0 -5436,-719 -5436,-1606l0 3232 0 1875c0,887 2434,1605 5436,1605 3002,0 5436,-718 5436,-1605l0 -1875 0 -3232c0,887 -2434,1606 -5436,1606z"/>
  <path class="fil0" d="M10501 13711c-3002,0 -5436,-719 -5436,-1606l0 3232 0 1874c0,886 2434,1606 5436,1606 3002,0 5436,-719 5436,-1606l0 -1874 0 -3232c0,888 -2434,1606 -5436,1606z"/>
  <path class="fil0" d="M15699 18350c-679,658 -2750,1137 -5199,1137 -2450,0 -4519,-479 -5199,-1137 -153,148 -237,306 -237,468 0,887 2434,1606 5436,1606 3002,0 5436,-719 5436,-1606 0,-163 -83,-320 -237,-468z"/>
  <g id="_134471408">
   <line class="fil1 str0" x1="5069" y1="12170" x2="5073" y2= "11563" />
  </g>
  <g id="_134470976">
   <line class="fil1 str0" x1="15929" y1="12187" x2="15931" y2= "11547" />
  </g>
  <path class="fil2 str1" d="M10501 13078c-2900,0 -5270,-671 -5428,-1516l-4 607c115,858 2503,1542 5432,1542 2909,0 5284,-675 5429,-1524l1 -640c-132,852 -2512,1531 -5430,1531z"/>
  <g id="_332582672">
   <line class="fil1 str0" x1="15928" y1="6458" x2="15929" y2= "6180" />
  </g>
  <g id="_332582240">
   <line class="fil1 str0" x1="5081" y1="6491" x2="5079" y2= "6123" />
  </g>
  <path class="fil2 str1" d="M10500 7195c-2524,0 -4645,-354 -5420,-1072l1 368c215,829 2560,1482 5420,1482 2898,0 5266,-670 5427,-1514l2 -278c-772,747 -2911,1015 -5430,1015z"/>
  <path class="fil2 str1" d="M10501 7973c-2860,0 -5205,-653 -5420,-1482 -11,-41 -16,-83 -16,-124l0 3232 0 1875c0,30 3,60 8,90 157,845 2527,1516 5428,1516 2918,0 5298,-678 5430,-1531 4,-25 6,-49 6,-74l0 -1875 0 -3232c0,31 -3,61 -9,92 -161,845 -2529,1514 -5427,1514z"/>
  <path class="fil3 str1" d="M10501 13078c-2900,0 -5270,-671 -5428,-1516l-4 607c115,858 2503,1542 5432,1542 2909,0 5284,-675 5429,-1524l1 -640c-132,852 -2512,1531 -5430,1531z"/>
  <path class="fil0 str1" d="M5081 6491c215,829 2560,1482 5420,1482 2898,0 5266,-670 5427,-1514l2 -278c-772,747 -2911,1015 -5430,1015 -2524,0 -4645,-354 -5420,-1072l1 368z"/>
  <path class="fil0 str1" d="M10501 13078c-2900,0 -5270,-671 -5428,-1516l-4 607c115,858 2503,1542 5432,1542 2909,0 5284,-675 5429,-1524l1 -640c-132,852 -2512,1531 -5430,1531z"/>
  <g id="_332586696">
   <line class="fil1 str0" x1="5301" y1="18350" x2="5305" y2= "17685" />
  </g>
  <g id="_332328464">
   <line class="fil1 str0" x1="15699" y1="18350" x2="15702" y2= "17680" />
  </g>
  <path class="fil0 str1" d="M15702 17680c-678,659 -2750,1138 -5201,1138 -2444,0 -4511,-477 -5196,-1133l-4 664c680,658 2749,1137 5199,1137 2449,0 4520,-479 5199,-1137l3 -670z"/>
 </g>
</svg>
