<svg xmlns:dc="http://purl.org/dc/elements/1.1/" xmlns:cc="http://creativecommons.org/ns#" xmlns:rdf="http://www.w3.org/1999/02/22-rdf-syntax-ns#" xmlns:svg="http://www.w3.org/2000/svg" xmlns="http://www.w3.org/2000/svg" xmlns:sodipodi="http://sodipodi.sourceforge.net/DTD/sodipodi-0.dtd" xmlns:inkscape="http://www.inkscape.org/namespaces/inkscape" version="1.1" x="0px" y="0px" viewBox="0 0 100.00001 125" enable-background="new 0 0 515.91 728.5" xml:space="preserve"><path style="text-indent:0;text-transform:none;direction:ltr;block-progression:tb;baseline-shift:baseline;color:#000000;enable-background:accumulate;" d="M 32.28125 5 C 31.825857 4.99679 31.353265 5.1779841 31.03125 5.5 C 30.709234 5.8220158 30.528035 6.294607 30.53125 6.75 C 30.53445 7.2053779 30.735959 7.6513202 31.0625 7.96875 L 46.15625 23.0625 C 46.473664 23.389057 46.919622 23.55927 47.375 23.5625 C 47.830393 23.5657 48.271735 23.384516 48.59375 23.0625 C 48.915766 22.740485 49.096965 22.299143 49.09375 21.84375 C 49.09055 21.388372 48.920291 20.942429 48.59375 20.625 L 33.5 5.53125 C 33.182586 5.2046938 32.736628 5.0032301 32.28125 5 z M 18.90625 8.875 C 16.354361 8.8968058 13.814827 9.8726728 11.875 11.8125 C 7.9706936 15.716807 7.9584727 22.066744 11.8125 26 L 35.53125 52.65625 C 27.272882 61.37478 20.841428 68.964585 16.3125 75.0625 C 14.486509 73.540257 12.765707 72.196761 11.28125 71.34375 C 10.34345 70.804863 9.5069142 70.431447 8.65625 70.21875 C 7.8055401 70.006038 6.6233501 69.9079 5.71875 70.8125 C 5.2364652 71.294785 5.0358811 71.916896 5 72.4375 C 4.964165 72.95815 5.0610245 73.426097 5.1875 73.875 C 5.4404505 74.772926 5.8878119 75.669969 6.5 76.6875 C 7.5673526 78.461414 9.207746 80.55083 11.15625 82.75 C 10.526434 83.888703 10.015718 84.958394 9.71875 85.90625 C 9.5225085 86.532608 9.3858336 87.130606 9.40625 87.78125 C 9.426697 88.431894 9.6486747 89.211175 10.21875 89.78125 C 10.788871 90.351371 11.568166 90.573333 12.21875 90.59375 C 12.869363 90.61414 13.467422 90.477522 14.09375 90.28125 C 15.04159 89.984298 16.111281 89.473551 17.25 88.84375 C 19.449169 90.792254 21.538586 92.432648 23.3125 93.5 C 24.330061 94.112188 25.227089 94.559565 26.125 94.8125 C 26.573933 94.939006 27.041881 95.035866 27.5625 95 C 28.083118 94.96413 28.705216 94.763535 29.1875 94.28125 C 30.092101 93.376649 29.993931 92.19443 29.78125 91.34375 C 29.568553 90.493086 29.195153 89.656565 28.65625 88.71875 C 27.80327 87.234323 26.459713 85.51346 24.9375 83.6875 C 31.016369 79.172711 38.616138 72.675011 47.3125 64.4375 L 74 88.1875 C 77.933255 92.041528 84.283193 92.029308 88.1875 88.125 C 92.067155 84.245345 92.121703 77.939732 88.34375 74 L 84.28125 68.84375 C 84.736003 67.942426 85.032304 67.001899 85.125 66.0625 C 85.256229 64.732735 84.929052 63.304052 83.90625 62.28125 C 83.00072 61.37572 81.741518 61.00445 80.5625 61.03125 C 79.853151 61.04738 79.162573 61.230152 78.46875 61.46875 L 65.8125 45.4375 C 70.117792 40.41285 73.010288 36.388553 74.625 33.21875 C 75.490809 31.519097 76.039984 30.056163 76.1875 28.6875 C 76.335016 27.318838 76.014926 25.889927 75.0625 24.9375 C 74.110089 23.985089 72.681162 23.664984 71.3125 23.8125 C 69.943806 23.959986 68.480918 24.509206 66.78125 25.375 C 63.59874 26.996171 59.584437 29.853336 54.53125 34.1875 L 38.53125 21.53125 C 38.769863 20.837442 38.952646 20.146849 38.96875 19.4375 C 38.99557 18.258466 38.655529 16.99928 37.75 16.09375 C 36.727198 15.070948 35.267265 14.743771 33.9375 14.875 C 32.9981 14.9677 32.057559 15.263982 31.15625 15.71875 L 26 11.65625 C 24.030131 9.7672926 21.458139 8.8531942 18.90625 8.875 z M 78.15625 50.90625 C 77.700857 50.90305 77.259516 51.084234 76.9375 51.40625 C 76.615484 51.728266 76.434285 52.169607 76.4375 52.625 C 76.4407 53.080378 76.610959 53.52632 76.9375 53.84375 L 92.03125 68.9375 C 92.348664 69.264056 92.794622 69.46552 93.25 69.46875 C 93.705393 69.47195 94.177984 69.290766 94.5 68.96875 C 94.822016 68.646734 95.003215 68.174143 95 67.71875 C 94.9968 67.263372 94.795291 66.81743 94.46875 66.5 L 79.375 51.40625 C 79.057585 51.079694 78.611628 50.90948 78.15625 50.90625 z " transform="translate(0,-5e-6)" fill="#000000" fill-opacity="1" stroke="none" marker="none" visibility="visible" display="inline" overflow="visible"/><text x="0" y="115" fill="#000000" font-size="5px" font-weight="bold" font-family="'Helvetica Neue', Helvetica, Arial-Unicode, Arial, Sans-serif">Created by Aha-Soft</text><text x="0" y="120" fill="#000000" font-size="5px" font-weight="bold" font-family="'Helvetica Neue', Helvetica, Arial-Unicode, Arial, Sans-serif">from the Noun Project</text></svg>