<?xml version="1.0" encoding="UTF-8"?>
<!DOCTYPE svg PUBLIC "-//W3C//DTD SVG 1.1//EN" "http://www.w3.org/Graphics/SVG/1.1/DTD/svg11.dtd">
<!-- Creator: CorelDRAW X6 -->
<svg xmlns="http://www.w3.org/2000/svg" xml:space="preserve" width="210mm" height="297mm" version="1.1" style="shape-rendering:geometricPrecision; text-rendering:geometricPrecision; image-rendering:optimizeQuality; fill-rule:evenodd; clip-rule:evenodd"
viewBox="0 0 21000 29700"
 xmlns:xlink="http://www.w3.org/1999/xlink"
 enable-background="new 0 0 24 24">
 <defs>
  <style type="text/css">
   <![CDATA[
    .str0 {stroke:#2B2A29;stroke-width:20}
    .fil2 {fill:none}
    .fil3 {fill:#2B2A29}
    .fil1 {fill:#E31E24}
    .fil0 {fill:black}
   ]]>
  </style>
 </defs>
 <g id="Layer_x0020_1">
  <metadata id="CorelCorpID_0Corel-Layer"/>
  <path class="fil0" d="M18138 20816c-1328,0 -2653,-450 -3819,-1261 -2328,1634 -5307,1634 -7636,0 -1166,812 -2491,1261 -3819,1261l-1909 0 0 1909 1909 0c1318,0 2615,-333 3819,-945 2405,1231 5232,1231 7636,0 1203,620 2501,945 3819,945l1909 0 0 -1909 -1909 0zm-15320 -1908l47 0c1528,0 2883,-840 3819,-1909 935,1069 2291,1909 3818,1909 1527,0 2882,-840 3818,-1909 936,1069 2292,1909 3819,1909l47 0 1804 -6376c77,-248 58,-516 -56,-745 -115,-231 -325,-402 -573,-479l-1222 -400 0 -4410c0,-1049 -859,-1909 -1909,-1909l-2864 0 0 -2864 -5727 0 0 2864 -2863 0c-1051,0 -1910,859 -1910,1909l0 4410 -1231 400c-248,77 -458,248 -573,479 -115,228 -144,496 -57,745l1814 6376zm1957 -12409l11455 0 0 3791 -5728 -1881 -5727 1881 0 -3791z"/>
  <path class="fil1 str0" d="M6683 16998c935,1069 2291,1909 3818,1909 1527,0 2882,-840 3818,-1909 936,1069 2292,1909 3819,1909l47 0 1804 -6376c77,-248 58,-516 -56,-745 -115,-231 -325,-402 -573,-479l-1222 -400 0 -4410c0,-1049 -859,-1909 -1909,-1909l-2864 0 0 -2864 -5727 0 0 2864 -2863 0c-1051,0 -1910,859 -1910,1909l0 4410 -1231 400c-248,77 -458,248 -573,479 -115,228 -144,496 -57,745l1814 6376 47 0c1528,0 2883,-840 3819,-1909zm9546 -6710l-5728 -1881 -5727 1881 0 -3791 11455 0 0 3791z"/>
  <line class="fil2 str0" x1="4775" y1="10289" x2="2865" y2= "10908" />
  <line class="fil2 str0" x1="16230" y1="10289" x2="18138" y2= "10908" />
  <path class="fil3 str0" d="M4775 6498l11455 0 0 3791 1908 619 0 -4410c0,-1049 -859,-1909 -1909,-1909l-2864 0 0 -2864 -5727 0 0 2864 -2863 0c-1051,0 -1910,859 -1910,1909l0 4410 1910 -620 0 -3791z"/>
 </g>
</svg>
