<svg xmlns="http://www.w3.org/2000/svg" xmlns:xlink="http://www.w3.org/1999/xlink" version="1.1" x="0px" y="0px" viewBox="0 0 100 125" enable-background="new 0 0 100 100" xml:space="preserve"><path fill-rule="evenodd" clip-rule="evenodd" d="M61.777,37.93c-2.271-3.267-4.555-6.547-6.836-9.833  c0.377-0.284,0.755-0.562,1.133-0.845c11.594,10.236,23.183,20.473,35.606,31.435c-5.628,3.53-10.118,6.344-14.745,9.247  c1.402,4.688,4.538,7.278,9.64,5.573c3.863-1.288,7.418-3.501,11.181-5.334c-0.03,10.007-19.305,9.963-34.79,6.691  c2.64-0.542,5.279-1.084,7.944-1.631c-3.675-5.428-3.675-5.428-12.544-4.648c0.722,7.169-3.649,8.353-9.689,8.179  c-9.585-0.278-19.18-0.174-28.765-0.03c-4.36,0.064-8.87-0.507-9.491-5.27c-0.398-3.082,2.023-6.527,3.181-9.809  c0.786-0.215,1.577-0.429,2.367-0.641c-3.823-3.064-7.682-6.096-11.445-9.238c-0.646-0.537-0.91-1.531-1.347-2.312  c1.084-0.571,2.227-1.721,3.242-1.61c4.752,0.512,9.5,1.231,14.193,2.151c3.48,0.688,5.484-0.179,7.194-3.589  c6.408-12.787,6.552-12.717,18.722-5.403C52.515,44.606,57.432,43.626,61.777,37.93z M49.02,70.171  c-4.573-3.61-27.01-3.218-30.494,0C29.099,70.171,39.058,70.171,49.02,70.171z M39.554,49.608c4.187,2.103,7.816,5.096,10.371-0.98  c-2.755-1.143-5.285-2.197-8.064-3.35C41.1,46.704,40.424,47.981,39.554,49.608z"/><path fill-rule="evenodd" clip-rule="evenodd" d="M49.343,27.325c-0.536,4.187-2.699,6.871-7.049,6.662  c-4.176-0.199-6.567-2.963-6.96-6.99c-0.368-3.833,3.46-7.238,7.452-6.88C47.106,20.505,49.076,23.179,49.343,27.325z"/><text x="0" y="115" fill="#000000" font-size="5px" font-weight="bold" font-family="'Helvetica Neue', Helvetica, Arial-Unicode, Arial, Sans-serif">Created by Ealancheliyan s</text><text x="0" y="120" fill="#000000" font-size="5px" font-weight="bold" font-family="'Helvetica Neue', Helvetica, Arial-Unicode, Arial, Sans-serif">from the Noun Project</text></svg>