<?xml version="1.0" encoding="utf-8"?>
<svg x="0px" y="0px" viewBox="0 0 90 112.5" xmlns="http://www.w3.org/2000/svg">
  <path d="M45,2.5C21.527,2.5,2.5,21.527,2.5,45c0,23.472,19.027,42.5,42.5,42.5c23.472,0,42.5-19.028,42.5-42.5  C87.5,21.527,68.472,2.5,45,2.5z M64.654,67.567l-2.988,2.987L46.583,50.172c-3.444,3.195-6.783,5.92-9.667,8.13l1.391,10.896  l-1.245,1.245l-5.969-8.109c-2.468,1.417-4.068,2.056-4.724,1.4c-0.655-0.655-0.097-2.335,1.321-4.804l-8.136-5.996l1.246-1.245  l10.892,1.387c2.21-2.884,4.887-6.271,8.082-9.716L19.441,28.33l2.988-2.988l26.928,8.344C62.603,20.985,68.342,18.167,70.09,19.915  c1.748,1.749-1.076,7.482-13.777,20.727L64.654,67.567z"/>
</svg>